<mxfile host="app.diagrams.net" agent="Mozilla/5.0 (Windows NT 10.0; Win64; x64) AppleWebKit/537.36 (KHTML, like Gecko) Chrome/133.0.0.0 Safari/537.36" version="26.0.16">
  <diagram name="Page-1" id="2Na1mMcWqG-s2I5iGiuY">
    <mxGraphModel dx="1042" dy="603" grid="1" gridSize="10" guides="1" tooltips="1" connect="1" arrows="1" fold="1" page="1" pageScale="1" pageWidth="827" pageHeight="1169" math="0" shadow="0">
      <root>
        <mxCell id="0" />
        <mxCell id="1" parent="0" />
        <mxCell id="KWDi-bwXY5oB_92EGKLW-26" value="user management process" style="ellipse;shape=doubleEllipse;whiteSpace=wrap;html=1;" vertex="1" parent="1">
          <mxGeometry x="260" y="370" width="230" height="60" as="geometry" />
        </mxCell>
        <mxCell id="KWDi-bwXY5oB_92EGKLW-28" value="payment management process" style="ellipse;shape=doubleEllipse;whiteSpace=wrap;html=1;" vertex="1" parent="1">
          <mxGeometry x="290" y="770" width="230" height="70" as="geometry" />
        </mxCell>
        <mxCell id="KWDi-bwXY5oB_92EGKLW-34" style="edgeStyle=orthogonalEdgeStyle;rounded=0;orthogonalLoop=1;jettySize=auto;html=1;exitX=1;exitY=0;exitDx=0;exitDy=0;entryX=0;entryY=0.5;entryDx=0;entryDy=0;" edge="1" parent="1" source="KWDi-bwXY5oB_92EGKLW-31" target="KWDi-bwXY5oB_92EGKLW-26">
          <mxGeometry relative="1" as="geometry">
            <mxPoint x="220" y="470" as="targetPoint" />
            <Array as="points">
              <mxPoint x="140" y="496" />
              <mxPoint x="221" y="496" />
              <mxPoint x="221" y="400" />
            </Array>
          </mxGeometry>
        </mxCell>
        <mxCell id="KWDi-bwXY5oB_92EGKLW-31" value="customer" style="shape=ext;double=1;rounded=0;whiteSpace=wrap;html=1;" vertex="1" parent="1">
          <mxGeometry x="20" y="520" width="120" height="80" as="geometry" />
        </mxCell>
        <mxCell id="KWDi-bwXY5oB_92EGKLW-35" value="admin" style="shape=ext;double=1;rounded=0;whiteSpace=wrap;html=1;" vertex="1" parent="1">
          <mxGeometry x="680" y="540" width="120" height="80" as="geometry" />
        </mxCell>
        <mxCell id="KWDi-bwXY5oB_92EGKLW-36" style="edgeStyle=orthogonalEdgeStyle;rounded=0;orthogonalLoop=1;jettySize=auto;html=1;exitX=1;exitY=0;exitDx=0;exitDy=0;entryX=0.991;entryY=0.363;entryDx=0;entryDy=0;entryPerimeter=0;" edge="1" parent="1" target="KWDi-bwXY5oB_92EGKLW-26">
          <mxGeometry relative="1" as="geometry">
            <mxPoint x="800" y="435" as="targetPoint" />
            <mxPoint x="680" y="555" as="sourcePoint" />
            <Array as="points">
              <mxPoint x="680" y="540" />
              <mxPoint x="761" y="540" />
              <mxPoint x="761" y="415" />
              <mxPoint x="800" y="415" />
              <mxPoint x="800" y="392" />
            </Array>
          </mxGeometry>
        </mxCell>
        <mxCell id="KWDi-bwXY5oB_92EGKLW-37" value="" style="edgeStyle=segmentEdgeStyle;endArrow=classic;html=1;curved=0;rounded=0;endSize=8;startSize=8;exitX=0.5;exitY=1;exitDx=0;exitDy=0;" edge="1" parent="1" source="KWDi-bwXY5oB_92EGKLW-31">
          <mxGeometry width="50" height="50" relative="1" as="geometry">
            <mxPoint x="240" y="860" as="sourcePoint" />
            <mxPoint x="290" y="810" as="targetPoint" />
            <Array as="points">
              <mxPoint x="80" y="860" />
              <mxPoint x="290" y="860" />
            </Array>
          </mxGeometry>
        </mxCell>
        <mxCell id="KWDi-bwXY5oB_92EGKLW-38" value="" style="edgeStyle=segmentEdgeStyle;endArrow=classic;html=1;curved=0;rounded=0;endSize=8;startSize=8;exitX=0.58;exitY=1.028;exitDx=0;exitDy=0;exitPerimeter=0;" edge="1" parent="1">
          <mxGeometry width="50" height="50" relative="1" as="geometry">
            <mxPoint x="99.99999999999991" y="600" as="sourcePoint" />
            <mxPoint x="310.4" y="817.76" as="targetPoint" />
            <Array as="points">
              <mxPoint x="100.4" y="867.76" />
              <mxPoint x="310.4" y="867.76" />
            </Array>
          </mxGeometry>
        </mxCell>
        <mxCell id="KWDi-bwXY5oB_92EGKLW-40" value="" style="edgeStyle=elbowEdgeStyle;elbow=vertical;endArrow=classic;html=1;curved=0;rounded=0;endSize=8;startSize=8;exitX=1;exitY=1;exitDx=0;exitDy=0;" edge="1" parent="1" source="KWDi-bwXY5oB_92EGKLW-27">
          <mxGeometry width="50" height="50" relative="1" as="geometry">
            <mxPoint x="220" y="680" as="sourcePoint" />
            <mxPoint x="390" y="610" as="targetPoint" />
          </mxGeometry>
        </mxCell>
        <mxCell id="KWDi-bwXY5oB_92EGKLW-27" value="order management process" style="ellipse;shape=doubleEllipse;whiteSpace=wrap;html=1;" vertex="1" parent="1">
          <mxGeometry x="280" y="610" width="230" height="60" as="geometry" />
        </mxCell>
        <mxCell id="KWDi-bwXY5oB_92EGKLW-42" value="" style="edgeStyle=segmentEdgeStyle;endArrow=classic;html=1;curved=0;rounded=0;endSize=8;startSize=8;exitX=0.86;exitY=0.998;exitDx=0;exitDy=0;exitPerimeter=0;" edge="1" parent="1" source="KWDi-bwXY5oB_92EGKLW-31">
          <mxGeometry width="50" height="50" relative="1" as="geometry">
            <mxPoint x="250" y="700" as="sourcePoint" />
            <mxPoint x="300" y="650" as="targetPoint" />
            <Array as="points">
              <mxPoint x="123" y="700" />
              <mxPoint x="300" y="700" />
            </Array>
          </mxGeometry>
        </mxCell>
        <mxCell id="KWDi-bwXY5oB_92EGKLW-44" value="" style="edgeStyle=elbowEdgeStyle;elbow=horizontal;endArrow=classic;html=1;curved=0;rounded=0;endSize=8;startSize=8;exitX=1;exitY=0.5;exitDx=0;exitDy=0;" edge="1" parent="1" source="KWDi-bwXY5oB_92EGKLW-31">
          <mxGeometry width="50" height="50" relative="1" as="geometry">
            <mxPoint x="130" y="610" as="sourcePoint" />
            <mxPoint x="280" y="640" as="targetPoint" />
            <Array as="points">
              <mxPoint x="250" y="680" />
            </Array>
          </mxGeometry>
        </mxCell>
        <mxCell id="KWDi-bwXY5oB_92EGKLW-45" value="" style="endArrow=classic;html=1;rounded=0;entryX=1.007;entryY=0.117;entryDx=0;entryDy=0;entryPerimeter=0;" edge="1" parent="1" target="KWDi-bwXY5oB_92EGKLW-31">
          <mxGeometry width="50" height="50" relative="1" as="geometry">
            <mxPoint x="400" y="610" as="sourcePoint" />
            <mxPoint x="370" y="540" as="targetPoint" />
            <Array as="points">
              <mxPoint x="400" y="530" />
            </Array>
          </mxGeometry>
        </mxCell>
        <mxCell id="KWDi-bwXY5oB_92EGKLW-46" value="" style="endArrow=classic;html=1;rounded=0;entryX=1;entryY=0.25;entryDx=0;entryDy=0;exitX=0.56;exitY=-0.023;exitDx=0;exitDy=0;exitPerimeter=0;" edge="1" parent="1" source="KWDi-bwXY5oB_92EGKLW-27" target="KWDi-bwXY5oB_92EGKLW-31">
          <mxGeometry width="50" height="50" relative="1" as="geometry">
            <mxPoint x="410" y="600" as="sourcePoint" />
            <mxPoint x="151" y="539" as="targetPoint" />
            <Array as="points">
              <mxPoint x="410" y="540" />
            </Array>
          </mxGeometry>
        </mxCell>
        <mxCell id="KWDi-bwXY5oB_92EGKLW-47" value="" style="endArrow=classic;html=1;rounded=0;entryX=1;entryY=0.388;entryDx=0;entryDy=0;entryPerimeter=0;exitX=0.602;exitY=0.003;exitDx=0;exitDy=0;exitPerimeter=0;" edge="1" parent="1" source="KWDi-bwXY5oB_92EGKLW-27" target="KWDi-bwXY5oB_92EGKLW-31">
          <mxGeometry width="50" height="50" relative="1" as="geometry">
            <mxPoint x="420" y="630" as="sourcePoint" />
            <mxPoint x="150" y="550" as="targetPoint" />
            <Array as="points">
              <mxPoint x="420" y="580" />
              <mxPoint x="420" y="550" />
            </Array>
          </mxGeometry>
        </mxCell>
        <mxCell id="KWDi-bwXY5oB_92EGKLW-48" value="" style="endArrow=classic;html=1;rounded=0;exitX=0.5;exitY=1;exitDx=0;exitDy=0;entryX=0.433;entryY=-0.033;entryDx=0;entryDy=0;entryPerimeter=0;" edge="1" parent="1" source="KWDi-bwXY5oB_92EGKLW-26" target="KWDi-bwXY5oB_92EGKLW-31">
          <mxGeometry width="50" height="50" relative="1" as="geometry">
            <mxPoint x="340" y="660" as="sourcePoint" />
            <mxPoint x="70" y="500" as="targetPoint" />
            <Array as="points">
              <mxPoint x="375" y="470" />
              <mxPoint x="70" y="470" />
            </Array>
          </mxGeometry>
        </mxCell>
        <mxCell id="KWDi-bwXY5oB_92EGKLW-52" value="" style="endArrow=classic;html=1;rounded=0;entryX=0.027;entryY=0.367;entryDx=0;entryDy=0;entryPerimeter=0;exitX=0.95;exitY=0.23;exitDx=0;exitDy=0;exitPerimeter=0;" edge="1" parent="1" source="KWDi-bwXY5oB_92EGKLW-27" target="KWDi-bwXY5oB_92EGKLW-35">
          <mxGeometry width="50" height="50" relative="1" as="geometry">
            <mxPoint x="500" y="610" as="sourcePoint" />
            <mxPoint x="670" y="570" as="targetPoint" />
            <Array as="points">
              <mxPoint x="500" y="570" />
            </Array>
          </mxGeometry>
        </mxCell>
        <mxCell id="KWDi-bwXY5oB_92EGKLW-54" value="" style="endArrow=classic;html=1;rounded=0;exitX=0.652;exitY=1;exitDx=0;exitDy=0;exitPerimeter=0;" edge="1" parent="1" source="KWDi-bwXY5oB_92EGKLW-26">
          <mxGeometry width="50" height="50" relative="1" as="geometry">
            <mxPoint x="550" y="530" as="sourcePoint" />
            <mxPoint x="680" y="540" as="targetPoint" />
            <Array as="points">
              <mxPoint x="680" y="430" />
            </Array>
          </mxGeometry>
        </mxCell>
        <mxCell id="KWDi-bwXY5oB_92EGKLW-55" value="" style="edgeStyle=segmentEdgeStyle;endArrow=classic;html=1;curved=0;rounded=0;endSize=8;startSize=8;entryX=0.223;entryY=0.95;entryDx=0;entryDy=0;entryPerimeter=0;exitX=0.913;exitY=1.038;exitDx=0;exitDy=0;exitPerimeter=0;" edge="1" parent="1" source="KWDi-bwXY5oB_92EGKLW-31" target="KWDi-bwXY5oB_92EGKLW-27">
          <mxGeometry width="50" height="50" relative="1" as="geometry">
            <mxPoint x="130" y="720" as="sourcePoint" />
            <mxPoint x="330" y="720" as="targetPoint" />
            <Array as="points">
              <mxPoint x="130" y="760" />
              <mxPoint x="330" y="760" />
              <mxPoint x="330" y="667" />
            </Array>
          </mxGeometry>
        </mxCell>
        <mxCell id="KWDi-bwXY5oB_92EGKLW-56" value="login" style="text;html=1;align=center;verticalAlign=middle;resizable=0;points=[];autosize=1;strokeColor=none;fillColor=none;" vertex="1" parent="1">
          <mxGeometry x="555" y="358" width="50" height="30" as="geometry" />
        </mxCell>
        <mxCell id="KWDi-bwXY5oB_92EGKLW-57" value="login" style="text;html=1;align=center;verticalAlign=middle;resizable=0;points=[];autosize=1;strokeColor=none;fillColor=none;" vertex="1" parent="1">
          <mxGeometry x="210" y="370" width="50" height="30" as="geometry" />
        </mxCell>
        <mxCell id="KWDi-bwXY5oB_92EGKLW-59" value="add item" style="text;html=1;align=center;verticalAlign=middle;resizable=0;points=[];autosize=1;strokeColor=none;fillColor=none;" vertex="1" parent="1">
          <mxGeometry x="545" y="528" width="70" height="30" as="geometry" />
        </mxCell>
        <mxCell id="KWDi-bwXY5oB_92EGKLW-60" value="view item" style="text;html=1;align=center;verticalAlign=middle;resizable=0;points=[];autosize=1;strokeColor=none;fillColor=none;" vertex="1" parent="1">
          <mxGeometry x="145" y="828" width="70" height="30" as="geometry" />
        </mxCell>
        <mxCell id="KWDi-bwXY5oB_92EGKLW-61" value="add to cart&lt;div&gt;&lt;br&gt;&lt;/div&gt;" style="text;html=1;align=center;verticalAlign=middle;resizable=0;points=[];autosize=1;strokeColor=none;fillColor=none;" vertex="1" parent="1">
          <mxGeometry x="170" y="730" width="80" height="40" as="geometry" />
        </mxCell>
        <mxCell id="KWDi-bwXY5oB_92EGKLW-62" value="order -place" style="text;html=1;align=center;verticalAlign=middle;resizable=0;points=[];autosize=1;strokeColor=none;fillColor=none;" vertex="1" parent="1">
          <mxGeometry x="155" y="658" width="90" height="30" as="geometry" />
        </mxCell>
        <mxCell id="KWDi-bwXY5oB_92EGKLW-63" value="" style="edgeStyle=elbowEdgeStyle;elbow=horizontal;endArrow=classic;html=1;curved=0;rounded=0;endSize=8;startSize=8;" edge="1" parent="1">
          <mxGeometry width="50" height="50" relative="1" as="geometry">
            <mxPoint x="490" y="828" as="sourcePoint" />
            <mxPoint x="700" y="760" as="targetPoint" />
          </mxGeometry>
        </mxCell>
        <mxCell id="KWDi-bwXY5oB_92EGKLW-64" value="payment&lt;div&gt;&lt;br&gt;&lt;/div&gt;" style="shape=ext;double=1;rounded=0;whiteSpace=wrap;html=1;" vertex="1" parent="1">
          <mxGeometry x="700" y="720" width="120" height="80" as="geometry" />
        </mxCell>
        <mxCell id="KWDi-bwXY5oB_92EGKLW-65" value="login msg" style="text;html=1;align=center;verticalAlign=middle;resizable=0;points=[];autosize=1;strokeColor=none;fillColor=none;" vertex="1" parent="1">
          <mxGeometry x="105" y="438" width="70" height="30" as="geometry" />
        </mxCell>
        <mxCell id="KWDi-bwXY5oB_92EGKLW-67" value="login msg" style="text;html=1;align=center;verticalAlign=middle;resizable=0;points=[];autosize=1;strokeColor=none;fillColor=none;" vertex="1" parent="1">
          <mxGeometry x="575" y="428" width="70" height="30" as="geometry" />
        </mxCell>
        <mxCell id="KWDi-bwXY5oB_92EGKLW-68" value="" style="endArrow=classic;html=1;rounded=0;entryX=0.61;entryY=-0.009;entryDx=0;entryDy=0;entryPerimeter=0;exitX=0.643;exitY=1.003;exitDx=0;exitDy=0;exitPerimeter=0;" edge="1" parent="1" source="KWDi-bwXY5oB_92EGKLW-27" target="KWDi-bwXY5oB_92EGKLW-28">
          <mxGeometry width="50" height="50" relative="1" as="geometry">
            <mxPoint x="420" y="640" as="sourcePoint" />
            <mxPoint x="470" y="590" as="targetPoint" />
          </mxGeometry>
        </mxCell>
      </root>
    </mxGraphModel>
  </diagram>
</mxfile>
